<svg xmlns="http://www.w3.org/2000/svg" viewBox="0 0 200 170" width="200" height="170">
  <title>Suburban house, cream walls and a red roof</title>
  <g>
    <rect x="26" y="66" width="148" height="96" rx="4" fill="#f4e6cf"/>
    <rect x="26" y="66" width="148" height="96" rx="4" fill="none" stroke="#e0cdae" stroke-width="2"/>
    <path d="M14 70 L100 16 L186 70 Z" fill="#c25a45"/>
    <path d="M14 70 L100 16 L186 70 Z" fill="none" stroke="#a44735" stroke-width="3" stroke-linejoin="round"/>
    <path d="M100 16 L186 70 L172 70 L100 26 Z" fill="#d76b53"/>
    <rect x="132" y="26" width="18" height="30" rx="3" fill="#b45242"/>
    <rect x="129" y="22" width="24" height="8" rx="3" fill="#8f4033"/>
    <rect x="86" y="104" width="30" height="58" rx="3" fill="#9c5a3c"/>
    <circle cx="110" cy="134" r="3" fill="#f6d98a"/>
    <rect x="40" y="90" width="34" height="28" rx="3" fill="#cfe2ee"/>
    <rect x="40" y="90" width="34" height="28" rx="3" fill="none" stroke="#ffffff" stroke-width="4"/>
    <rect x="128" y="90" width="34" height="28" rx="3" fill="#cfe2ee"/>
    <rect x="128" y="90" width="34" height="28" rx="3" fill="none" stroke="#ffffff" stroke-width="4"/>
    <rect x="26" y="152" width="148" height="10" fill="#e2d1b6"/>
    <path d="M74 104 h58 v6 h-58 z" fill="#e6cfa8"/>
  </g>
</svg>
