<svg xmlns="http://www.w3.org/2000/svg" viewBox="0 0 120 140" width="120" height="140">
  <title>Kerbside mailbox on a post</title>
  <g>
    <rect x="52" y="70" width="16" height="66" rx="4" fill="#7b8794"/>
    <rect x="52" y="70" width="6" height="66" fill="#8f9aa6"/>
    <path d="M22 66 a30 22 0 0 1 60 0 v22 a4 4 0 0 1 -4 4 h-52 a4 4 0 0 1 -4 -4 z" fill="#ffffff"/>
    <path d="M22 66 a30 22 0 0 1 60 0 v22 a4 4 0 0 1 -4 4 h-52 a4 4 0 0 1 -4 -4 z" fill="none" stroke="#c3cdd7" stroke-width="3"/>
    <path d="M22 66 a30 22 0 0 1 60 0 v6 h-60 z" fill="#eef3f7"/>
    <rect x="30" y="78" width="30" height="6" rx="3" fill="#d7e0e8"/>
  </g>
</svg>
